# xmcd CD database file
#
# Track frame offsets:
#	150
#	900
#	1650
#	2400
#	3150
#	3900
#	4650
#	5400
#	6150
#	6900
#	7650
#	8400
#	9150
#	9900
#	10650
#	11400
#	336057
#
# Disc length: 4795 seconds
#
# Revision: 6
# Processed by: cddbd v1.5PL3 Copyright (c) Steve Scherf et al.
# Submitted via: CDex 1.51
#
DISCID=7212b911
DTITLE=EXILE - ENTERTAINMENT
DYEAR=2003
DGENRE=Dance
TTITLE0=EXILE COME
TTITLE1=New Jack Swing
TTITLE2=Together
TTITLE3=Believe
TTITLE4=Time
TTITLE5=ki・zu・na
TTITLE6=BLUE〜云えずにいる〜
TTITLE7=LET ME LUV U DOWN feat.ZEEBRA&MACCHO(OZROSAURUS)
TTITLE8=砂時計
TTITLE9=O'ver
TTITLE10=Be Mine feat.99% Radio Allstars
TTITLE11=Unlimited
TTITLE12=Eternal...
TTITLE13=Choo Choo TRAIN
TTITLE14=ROAD-RUNNER
TTITLE15=M&A
TTITLE16=Daten-Track
EXTD=YEAR: 2003
EXTT0=
EXTT1=
EXTT2=
EXTT3=
EXTT4=
EXTT5=
EXTT6=
EXTT7=
EXTT8=
EXTT9=
EXTT10=
EXTT11=
EXTT12=
EXTT13=
EXTT14=
EXTT15=
EXTT16=
PLAYORDER=
